<?xml version="1.0" encoding="UTF-8"?>
<svg height="16px" viewBox="0 0 16 16" width="16px" xmlns="http://www.w3.org/2000/svg">
    <g fill="#241f31">
        <path d="m 8 3 c -2.203125 0 -4 1.796875 -4 4 v 2 h 1.539062 v -2 c 0 -1.378906 1.082032 -2.464844 2.460938 -2.464844 s 2.460938 1.085938 2.460938 2.464844 v 2 h 1.539062 v -2 c 0 -2.203125 -1.796875 -4 -4 -4 z m 0 0"/>
        <path d="m 5.625 7 c 0.898438 0 1.625 0.726562 1.625 1.625 v 0.75 c 0 0.898438 -0.726562 1.625 -1.625 1.625 s -1.625 -0.726562 -1.625 -1.625 v -0.75 c 0 -0.898438 0.726562 -1.625 1.625 -1.625 z m 0 0"/>
        <path d="m 10.375 7 c 0.898438 0 1.625 0.726562 1.625 1.625 v 0.75 c 0 0.898438 -0.726562 1.625 -1.625 1.625 s -1.625 -0.726562 -1.625 -1.625 v -0.75 c 0 -0.898438 0.726562 -1.625 1.625 -1.625 z m 0 0"/>
        <path d="m 3 1 c -1.089844 0 -2 0.910156 -2 2 v 10 c 0 1.089844 0.910156 2 2 2 h 10 c 1.089844 0 2 -0.910156 2 -2 v -10 c 0 -1.089844 -0.910156 -2 -2 -2 z m 1 1 h 8 c 0.554688 0 1 0.445312 1 1 v 8 c 0 0.554688 -0.445312 1 -1 1 h -8 c -0.554688 0 -1 -0.445312 -1 -1 v -8 c 0 -0.554688 0.445312 -1 1 -1 z m 0 0"/>
    </g>
</svg>
