<?xml version="1.0" encoding="UTF-8" standalone="no"?>
<!-- Created with Inkscape (http://www.inkscape.org/) -->

<svg
   xmlns:osb="http://www.openswatchbook.org/uri/2009/osb"
   xmlns:dc="http://purl.org/dc/elements/1.1/"
   xmlns:cc="http://creativecommons.org/ns#"
   xmlns:rdf="http://www.w3.org/1999/02/22-rdf-syntax-ns#"
   xmlns:svg="http://www.w3.org/2000/svg"
   xmlns="http://www.w3.org/2000/svg"
   xmlns:sodipodi="http://sodipodi.sourceforge.net/DTD/sodipodi-0.dtd"
   xmlns:inkscape="http://www.inkscape.org/namespaces/inkscape"
   sodipodi:docname="parlatype-symbolic.svg"
   height="16"
   id="svg7384"
   version="1.1"
   inkscape:version="0.92.1 r15371"
   width="15.999999">
  <metadata
     id="metadata90">
    <rdf:RDF>
      <cc:Work
         rdf:about="">
        <dc:format>image/svg+xml</dc:format>
        <dc:type
           rdf:resource="http://purl.org/dc/dcmitype/StillImage" />
        <dc:title>Gnome Symbolic Icon Theme</dc:title>
      </cc:Work>
    </rdf:RDF>
  </metadata>
  <sodipodi:namedview
     inkscape:bbox-nodes="true"
     inkscape:bbox-paths="true"
     bordercolor="#666666"
     borderopacity="1"
     inkscape:current-layer="layer9"
     inkscape:cx="9.3055488"
     inkscape:cy="7.4988573"
     gridtolerance="10"
     inkscape:guide-bbox="true"
     guidetolerance="10"
     id="namedview88"
     inkscape:object-nodes="false"
     inkscape:object-paths="false"
     objecttolerance="10"
     pagecolor="#555753"
     inkscape:pageopacity="1"
     inkscape:pageshadow="2"
     showborder="false"
     showgrid="false"
     showguides="true"
     inkscape:snap-bbox="false"
     inkscape:snap-bbox-edge-midpoints="true"
     inkscape:snap-bbox-midpoints="true"
     inkscape:snap-global="true"
     inkscape:snap-grids="true"
     inkscape:snap-nodes="true"
     inkscape:snap-others="true"
     inkscape:snap-to-guides="true"
     inkscape:window-height="1016"
     inkscape:window-maximized="1"
     inkscape:window-width="1920"
     inkscape:window-x="0"
     inkscape:window-y="27"
     inkscape:zoom="22.627417">
    <inkscape:grid
       empspacing="2"
       enabled="true"
       id="grid4866"
       originx="-202"
       originy="-322"
       snapvisiblegridlinesonly="true"
       spacingx="1"
       spacingy="1"
       type="xygrid"
       visible="true" />
  </sodipodi:namedview>
  <title
     id="title9167">Gnome Symbolic Icon Theme</title>
  <defs
     id="defs7386">
    <linearGradient
       id="linearGradient824"
       osb:paint="solid">
      <stop
         style="stop-color:#000000;stop-opacity:1;"
         offset="0"
         id="stop822" />
    </linearGradient>
    <linearGradient
       id="linearGradient7212"
       osb:paint="solid">
      <stop
         id="stop7214"
         offset="0"
         style="stop-color:#000000;stop-opacity:1;" />
    </linearGradient>
  </defs>
  <g
     inkscape:groupmode="layer"
     id="layer9"
     inkscape:label="apps"
     style="display:inline"
     transform="translate(-443.0002,105)">
    <path
       inkscape:connector-curvature="0"
       d="m 446.70248,-104 c -1.53288,0 -2.71875,1.31948 -2.71875,2.84375 l 0,8.34375 c 0,1.52427 1.18587,2.84375 2.71875,2.84375 l 8.57897,0 c 1.53288,0 2.75,-1.31948 2.75,-2.84375 l 0,-8.34375 c 0,-1.52427 -1.21712,-2.84375 -2.75,-2.84375 z m 0.78125,1.03125 c 3.52668,0.25598 5.31717,0.13378 7.04772,0 0.75419,-0.0583 1.53125,0.61584 1.53125,1.4375 l 0,7.375 c 0,0.66541 -0.53119,1.09567 -1.1875,1.1875 -2.83642,0.39685 -4.75306,0.44007 -7.67272,0 -0.65529,-0.0988 -1.1875,-0.52209 -1.1875,-1.1875 l 0,-7.34375 c 0,-0.82166 0.71429,-1.52351 1.46875,-1.46875 z"
       id="rect11749-5-9-2-7"
       sodipodi:nodetypes="ssssssssssssssssss"
       style="color:#bebebe;font-style:normal;font-variant:normal;font-weight:normal;font-stretch:normal;font-size:medium;line-height:normal;font-family:'Bitstream Vera Sans';-inkscape-font-specification:'Bitstream Vera Sans';text-indent:0;text-align:start;text-decoration:none;text-decoration-line:none;letter-spacing:normal;word-spacing:normal;text-transform:none;direction:ltr;block-progression:tb;writing-mode:lr-tb;text-anchor:start;display:inline;overflow:visible;visibility:visible;fill:#bebebe;fill-opacity:1;fill-rule:nonzero;stroke:none;stroke-width:2;marker:none;enable-background:accumulate" />
    <path
       style="fill:#bebebe;fill-opacity:1;stroke:#bebebe;stroke-width:1.10000002;stroke-miterlimit:4;stroke-dasharray:none;stroke-opacity:1"
       d="m 448.78554,-94.25321 c -0.39505,-0.171114 -0.59203,-0.480461 -0.83721,-1.314798 -0.34289,-1.166806 -0.49435,-2.705026 -0.33829,-3.435661 0.24182,-1.132161 1.17936,-2.298291 2.20629,-2.744211 0.6516,-0.28295 1.41611,-0.36639 2.03143,-0.22172 1.28336,0.30173 2.39007,1.38714 2.82107,2.766763 0.10422,0.333591 0.11617,0.463768 0.11205,1.219908 -0.005,0.971379 -0.11145,1.659077 -0.39368,2.550359 -0.2174,0.686542 -0.39681,0.962875 -0.73441,1.131104 -0.27731,0.138191 -0.45018,0.157448 -0.66902,0.07453 -0.34613,-0.131145 -0.56059,-0.499324 -0.56231,-0.965361 -0.001,-0.299221 0.23419,-1.246261 0.38406,-1.545826 0.20561,-0.410975 0.53912,-0.67054 0.88474,-0.688582 l 0.163,-0.0085 0.0324,-0.373441 c 0.0326,-0.376057 -0.0262,-0.971834 -0.12789,-1.294599 -0.10983,-0.348706 -0.40157,-0.83724 -0.65378,-1.094795 -0.53638,-0.54777 -1.07331,-0.79747 -1.79825,-0.83625 -0.83406,-0.0446 -1.42482,0.18345 -2.02742,0.78276 -0.67446,0.670765 -0.89523,1.331237 -0.85137,2.547028 l 0.01,0.278418 0.21765,0.0033 c 0.26047,0.0039 0.44996,0.09557 0.66059,0.319436 0.21675,0.230384 0.2988,0.410711 0.50145,1.102141 0.14321,0.488618 0.17119,0.654338 0.14998,0.888244 -0.0363,0.399996 -0.20327,0.686499 -0.48214,0.827121 -0.25713,0.129662 -0.4538,0.138849 -0.69899,0.03265 z"
       id="path4557"
       inkscape:connector-curvature="0" />
  </g>
</svg>
